<svg width="24" height="24" viewBox="0 0 24 24" fill="none" xmlns="http://www.w3.org/2000/svg" class="size-7 text-primary">
  <defs>
    <linearGradient id="cygnis-grad" x1="12" y1="3" x2="12" y2="21" gradientUnits="userSpaceOnUse">
      <stop stop-color="#7C3AED">
      </stop>
      <stop offset="1" stop-color="#4F46E5">
      </stop>
    </linearGradient>
    <filter id="cygnis-shadow" x="-30%" y="-30%" width="160%" height="160%">
      <feGaussianBlur in="SourceAlpha" stdDeviation="0.8">
      </feGaussianBlur>
      <feOffset dx="0" dy="1.2" result="offsetblur">
      </feOffset>
      <feComponentTransfer>
        <feFuncA type="linear" slope="0.4">
        </feFuncA>
      </feComponentTransfer>
      <feMerge>
        <feMergeNode>
        </feMergeNode>
        <feMergeNode in="SourceGraphic">
        </feMergeNode>
      </feMerge>
    </filter>
  </defs>
  <g filter="url(#cygnis-shadow)">
    <path d="M12 3C7.03 3 3 7.03 3 12C3 16.97 7.03 21 12 21C16.97 21 21 16.97 21 12C21 7.03 16.97 3 12 3ZM12 19.2C8.02 19.2 4.8 15.98 4.8 12C4.8 8.02 8.02 4.8 12 4.8C15.98 4.8 19.2 8.02 19.2 12C19.2 15.98 15.98 19.2 12 19.2Z" fill="url(#cygnis-grad)" opacity="0.5">
    </path>
    <path d="M19.2 12C19.2 10.5 17.5 9.5 14.5 9.5V14.5C17.5 14.5 19.2 13.5 19.2 12Z" fill="url(#cygnis-grad)">
    </path>
    <path d="M12 19.2C10.5 19.2 9.5 17.5 9.5 14.5L14.5 14.5C14.5 17.5 13.5 19.2 12 19.2Z" fill="url(#cygnis-grad)">
    </path>
    <path d="M12 4.8C13.5 4.8 14.5 6.5 14.5 9.5H9.5C9.5 6.5 10.5 4.8 12 4.8Z" fill="url(#cygnis-grad)">
    </path>
    <circle cx="12" cy="12" r="3.2" stroke="url(#cygnis-grad)" stroke-width="2.2" stroke-linecap="round">
    </circle>
  </g>
</svg>
