<svg viewBox="0 0 680 420" xmlns="http://www.w3.org/2000/svg" font-family="'SF Mono', 'Fira Code', Consolas, monospace">
  <defs>
    <linearGradient id="wg" x1="0" y1="0" x2="0" y2="1">
      <stop offset="0%" stop-color="#2a2a2a"/>
      <stop offset="100%" stop-color="#1e1e1e"/>
    </linearGradient>
  </defs>
  <rect x="10" y="10" width="660" height="400" rx="10" fill="#0d1117" stroke="#30363d" stroke-width="1"/>
  <rect x="10" y="10" width="660" height="36" rx="10" fill="url(#wg)"/>
  <rect x="10" y="34" width="660" height="12" fill="url(#wg)"/>
  <circle cx="36" cy="28" r="7" fill="#ff5f57"/>
  <circle cx="58" cy="28" r="7" fill="#ffbd2e"/>
  <circle cx="80" cy="28" r="7" fill="#28c840"/>
  <text x="340" y="33" text-anchor="middle" fill="#9ca3af" font-size="13" font-weight="500">simon@github: ~/stack</text>
  <rect x="10" y="46" width="660" height="364" fill="#0d1117"/>
  <text x="30" y="80" fill="#58a6ff" font-size="13">simon@github</text>
  <text x="130" y="80" fill="#8b949e" font-size="13">:</text>
  <text x="138" y="80" fill="#3fb950" font-size="13">~/stack</text>
  <text x="195" y="80" fill="#8b949e" font-size="13">$</text>
  <text x="210" y="80" fill="#e6edf3" font-size="13"> ls --technologies</text>
  <line x1="30" y1="94" x2="650" y2="94" stroke="#21262d" stroke-width="1"/>
  <rect x="30" y="104" width="148" height="38" rx="6" fill="#161b22" stroke="#30363d" stroke-width="1"/>
  <circle cx="48" cy="123" r="9" fill="#ffffff"/>
  <text x="48" y="127" text-anchor="middle" fill="#000" font-size="10" font-weight="bold">N</text>
  <text x="65" y="119" fill="#e6edf3" font-size="12" font-weight="600">Next.js</text>
  <text x="65" y="134" fill="#8b949e" font-size="10">v15 &#xB7; App Router</text>
  <rect x="188" y="104" width="148" height="38" rx="6" fill="#161b22" stroke="#30363d" stroke-width="1"/>
  <circle cx="206" cy="123" r="9" fill="#20232a"/>
  <text x="206" y="127" text-anchor="middle" fill="#61dafb" font-size="13" font-weight="bold">&#x269B;</text>
  <text x="223" y="119" fill="#e6edf3" font-size="12" font-weight="600">React</text>
  <text x="223" y="134" fill="#8b949e" font-size="10">v19 &#xB7; RSC</text>
  <rect x="346" y="104" width="148" height="38" rx="6" fill="#161b22" stroke="#30363d" stroke-width="1"/>
  <rect x="336" y="111" width="22" height="22" rx="3" fill="#3178c6"/>
  <text x="347" y="126" text-anchor="middle" fill="#fff" font-size="9" font-weight="bold">TS</text>
  <text x="367" y="119" fill="#e6edf3" font-size="12" font-weight="600">TypeScript</text>
  <text x="367" y="134" fill="#8b949e" font-size="10">Strict mode</text>
  <rect x="504" y="104" width="148" height="38" rx="6" fill="#161b22" stroke="#30363d" stroke-width="1"/>
  <circle cx="522" cy="123" r="9" fill="#0ea5e9"/>
  <text x="522" y="127" text-anchor="middle" fill="#fff" font-size="9" font-weight="bold">TW</text>
  <text x="539" y="119" fill="#e6edf3" font-size="12" font-weight="600">Tailwind CSS</text>
  <text x="539" y="134" fill="#8b949e" font-size="10">v4 &#xB7; CSS-first</text>
  <rect x="30" y="152" width="148" height="38" rx="6" fill="#161b22" stroke="#30363d" stroke-width="1"/>
  <circle cx="48" cy="171" r="9" fill="#3776ab"/>
  <text x="48" y="175" text-anchor="middle" fill="#ffd43b" font-size="12">&#x1F40D;</text>
  <text x="65" y="167" fill="#e6edf3" font-size="12" font-weight="600">Python</text>
  <text x="65" y="182" fill="#8b949e" font-size="10">FastAPI &#xB7; ML</text>
  <rect x="188" y="152" width="148" height="38" rx="6" fill="#161b22" stroke="#30363d" stroke-width="1"/>
  <circle cx="206" cy="171" r="9" fill="#ffca28"/>
  <text x="206" y="175" text-anchor="middle" fill="#000" font-size="11" font-weight="bold">F</text>
  <text x="223" y="167" fill="#e6edf3" font-size="12" font-weight="600">Firebase</text>
  <text x="223" y="182" fill="#8b949e" font-size="10">Auth &#xB7; Firestore</text>
  <rect x="346" y="152" width="148" height="38" rx="6" fill="#161b22" stroke="#30363d" stroke-width="1"/>
  <circle cx="364" cy="171" r="9" fill="#4ff8d2"/>
  <text x="364" y="175" text-anchor="middle" fill="#000" font-size="10" font-weight="bold">T</text>
  <text x="381" y="167" fill="#e6edf3" font-size="12" font-weight="600">Turso</text>
  <text x="381" y="182" fill="#8b949e" font-size="10">LibSQL &#xB7; Edge DB</text>
  <rect x="504" y="152" width="148" height="38" rx="6" fill="#161b22" stroke="#30363d" stroke-width="1"/>
  <circle cx="522" cy="171" r="9" fill="#f55036"/>
  <text x="522" y="175" text-anchor="middle" fill="#fff" font-size="10" font-weight="bold">G</text>
  <text x="539" y="167" fill="#e6edf3" font-size="12" font-weight="600">Groq</text>
  <text x="539" y="182" fill="#8b949e" font-size="10">LLM &#xB7; Fn calling</text>
  <rect x="30" y="200" width="148" height="38" rx="6" fill="#161b22" stroke="#30363d" stroke-width="1"/>
  <circle cx="48" cy="219" r="9" fill="#2496ed"/>
  <text x="48" y="223" text-anchor="middle" fill="#fff" font-size="12">&#x1F433;</text>
  <text x="65" y="215" fill="#e6edf3" font-size="12" font-weight="600">Docker</text>
  <text x="65" y="230" fill="#8b949e" font-size="10">Compose &#xB7; CI</text>
  <rect x="188" y="200" width="148" height="38" rx="6" fill="#161b22" stroke="#30363d" stroke-width="1"/>
  <circle cx="206" cy="219" r="9" fill="#ffffff"/>
  <text x="206" y="223" text-anchor="middle" fill="#000" font-size="11" font-weight="bold">&#x25B2;</text>
  <text x="223" y="215" fill="#e6edf3" font-size="12" font-weight="600">Vercel</text>
  <text x="223" y="230" fill="#8b949e" font-size="10">Edge &#xB7; Deploy</text>
  <rect x="346" y="200" width="148" height="38" rx="6" fill="#161b22" stroke="#30363d" stroke-width="1"/>
  <circle cx="364" cy="219" r="9" fill="#2088ff"/>
  <text x="364" y="223" text-anchor="middle" fill="#fff" font-size="11" font-weight="bold">&#x2699;</text>
  <text x="381" y="215" fill="#e6edf3" font-size="12" font-weight="600">GH Actions</text>
  <text x="381" y="230" fill="#8b949e" font-size="10">CI/CD pipelines</text>
  <rect x="504" y="200" width="148" height="38" rx="6" fill="#161b22" stroke="#30363d" stroke-width="1"/>
  <circle cx="522" cy="219" r="9" fill="#a80030"/>
  <text x="522" y="223" text-anchor="middle" fill="#fff" font-size="11" font-weight="bold">D</text>
  <text x="539" y="215" fill="#e6edf3" font-size="12" font-weight="600">Debian</text>
  <text x="539" y="230" fill="#8b949e" font-size="10">Linux &#xB7; SharkOS</text>
  <rect x="30" y="248" width="148" height="38" rx="6" fill="#161b22" stroke="#30363d" stroke-width="1"/>
  <circle cx="48" cy="267" r="9" fill="#4d88ff"/>
  <text x="48" y="271" text-anchor="middle" fill="#fff" font-size="11" font-weight="bold">G</text>
  <text x="65" y="263" fill="#e6edf3" font-size="12" font-weight="600">Gemini</text>
  <text x="65" y="278" fill="#8b949e" font-size="10">Flash 2.0 &#xB7; Vision</text>
  <rect x="188" y="248" width="148" height="38" rx="6" fill="#161b22" stroke="#30363d" stroke-width="1"/>
  <circle cx="206" cy="267" r="9" fill="#f7c948"/>
  <text x="206" y="271" text-anchor="middle" fill="#000" font-size="10" font-weight="bold">U</text>
  <text x="223" y="263" fill="#e6edf3" font-size="12" font-weight="600">Unkey</text>
  <text x="223" y="278" fill="#8b949e" font-size="10">API keys &#xB7; Rate limit</text>
  <rect x="346" y="248" width="148" height="38" rx="6" fill="#161b22" stroke="#30363d" stroke-width="1"/>
  <circle cx="364" cy="267" r="9" fill="#000000" stroke="#444"/>
  <text x="364" y="271" text-anchor="middle" fill="#fff" font-size="11" font-weight="bold">R</text>
  <text x="381" y="263" fill="#e6edf3" font-size="12" font-weight="600">Resend</text>
  <text x="381" y="278" fill="#8b949e" font-size="10">Transactional mail</text>
  <rect x="504" y="248" width="148" height="38" rx="6" fill="#161b22" stroke="#30363d" stroke-width="1"/>
  <circle cx="522" cy="267" r="9" fill="#ef4444"/>
  <text x="522" y="271" text-anchor="middle" fill="#fff" font-size="10" font-weight="bold">T</text>
  <text x="539" y="263" fill="#e6edf3" font-size="12" font-weight="600">TanStack</text>
  <text x="539" y="278" fill="#8b949e" font-size="10">Router &#xB7; Query</text>
  <text x="30" y="314" fill="#58a6ff" font-size="13">simon@github</text>
  <text x="130" y="314" fill="#8b949e" font-size="13">:</text>
  <text x="138" y="314" fill="#3fb950" font-size="13">~/stack</text>
  <text x="195" y="314" fill="#8b949e" font-size="13">$</text>
  <text x="210" y="314" fill="#e6edf3" font-size="13"> echo $FOCUS</text>
  <text x="30" y="336" fill="#3fb950" font-size="12">&#x2192;</text>
  <text x="48" y="336" fill="#8b949e" font-size="12">Civic tech &#xB7; AI SaaS &#xB7; Developer tooling &#xB7; Open source</text>
  <text x="30" y="366" fill="#58a6ff" font-size="13">simon@github</text>
  <text x="130" y="366" fill="#8b949e" font-size="13">:</text>
  <text x="138" y="366" fill="#3fb950" font-size="13">~/stack</text>
  <text x="195" y="366" fill="#8b949e" font-size="13">$</text>
  <rect x="210" y="353" width="8" height="14" fill="#58a6ff">
    <animate attributeName="opacity" values="1;0;1" dur="1.2s" repeatCount="indefinite"/>
  </rect>
</svg>
